<svg width="1366" height="624" viewBox="0 0 1366 624" fill="none" xmlns="http://www.w3.org/2000/svg">
<path d="M1315.5 274.666C1315.5 335.141 1092 527.666 598 517.667C104 507.668 59 289.141 59 228.666C59 168.191 197 357.166 618.5 357.166C1112.5 357.166 1113.5 397.666 1315.5 274.666Z" fill="url(#paint0_linear_4540_154)"/>
<foreignObject x="-155.6" y="-155.6" width="374.2" height="935.2"><div xmlns="http://www.w3.org/1999/xhtml" style="backdrop-filter:blur(77.8px);clip-path:url(#bgblur_0_4540_154_clip_path);height:100%;width:100%"></div></foreignObject><rect data-figma-bg-blur-radius="155.6" width="63" height="624" fill="black" fill-opacity="0.05"/>
<foreignObject x="-92.6" y="-155.6" width="374.2" height="935.2"><div xmlns="http://www.w3.org/1999/xhtml" style="backdrop-filter:blur(77.8px);clip-path:url(#bgblur_1_4540_154_clip_path);height:100%;width:100%"></div></foreignObject><rect data-figma-bg-blur-radius="155.6" x="63" width="63" height="624" fill="black" fill-opacity="0.05"/>
<foreignObject x="-29.6" y="-155.6" width="374.2" height="935.2"><div xmlns="http://www.w3.org/1999/xhtml" style="backdrop-filter:blur(77.8px);clip-path:url(#bgblur_2_4540_154_clip_path);height:100%;width:100%"></div></foreignObject><rect data-figma-bg-blur-radius="155.6" x="126" width="63" height="624" fill="black" fill-opacity="0.05"/>
<foreignObject x="33.4" y="-155.6" width="373.2" height="935.2"><div xmlns="http://www.w3.org/1999/xhtml" style="backdrop-filter:blur(77.8px);clip-path:url(#bgblur_3_4540_154_clip_path);height:100%;width:100%"></div></foreignObject><rect data-figma-bg-blur-radius="155.6" x="189" width="62" height="624" fill="black" fill-opacity="0.05"/>
<foreignObject x="95.4" y="-155.6" width="374.2" height="935.2"><div xmlns="http://www.w3.org/1999/xhtml" style="backdrop-filter:blur(77.8px);clip-path:url(#bgblur_4_4540_154_clip_path);height:100%;width:100%"></div></foreignObject><rect data-figma-bg-blur-radius="155.6" x="251" width="63" height="624" fill="black" fill-opacity="0.05"/>
<foreignObject x="158.4" y="-155.6" width="374.2" height="935.2"><div xmlns="http://www.w3.org/1999/xhtml" style="backdrop-filter:blur(77.8px);clip-path:url(#bgblur_5_4540_154_clip_path);height:100%;width:100%"></div></foreignObject><rect data-figma-bg-blur-radius="155.6" x="314" width="63" height="624" fill="black" fill-opacity="0.05"/>
<foreignObject x="221.4" y="-155.6" width="374.2" height="935.2"><div xmlns="http://www.w3.org/1999/xhtml" style="backdrop-filter:blur(77.8px);clip-path:url(#bgblur_6_4540_154_clip_path);height:100%;width:100%"></div></foreignObject><rect data-figma-bg-blur-radius="155.6" x="377" width="63" height="624" fill="black" fill-opacity="0.05"/>
<foreignObject x="284.4" y="-155.6" width="374.2" height="935.2"><div xmlns="http://www.w3.org/1999/xhtml" style="backdrop-filter:blur(77.8px);clip-path:url(#bgblur_7_4540_154_clip_path);height:100%;width:100%"></div></foreignObject><rect data-figma-bg-blur-radius="155.6" x="440" width="63" height="624" fill="black" fill-opacity="0.05"/>
<foreignObject x="347.4" y="-155.6" width="374.2" height="935.2"><div xmlns="http://www.w3.org/1999/xhtml" style="backdrop-filter:blur(77.8px);clip-path:url(#bgblur_8_4540_154_clip_path);height:100%;width:100%"></div></foreignObject><rect data-figma-bg-blur-radius="155.6" x="503" width="63" height="624" fill="black" fill-opacity="0.05"/>
<foreignObject x="410.4" y="-155.6" width="373.2" height="935.2"><div xmlns="http://www.w3.org/1999/xhtml" style="backdrop-filter:blur(77.8px);clip-path:url(#bgblur_9_4540_154_clip_path);height:100%;width:100%"></div></foreignObject><rect data-figma-bg-blur-radius="155.6" x="566" width="62" height="624" fill="black" fill-opacity="0.05"/>
<foreignObject x="472.4" y="-155.6" width="374.2" height="935.2"><div xmlns="http://www.w3.org/1999/xhtml" style="backdrop-filter:blur(77.8px);clip-path:url(#bgblur_10_4540_154_clip_path);height:100%;width:100%"></div></foreignObject><rect data-figma-bg-blur-radius="155.6" x="628" width="63" height="624" fill="black" fill-opacity="0.05"/>
<foreignObject x="535.4" y="-155.6" width="374.2" height="935.2"><div xmlns="http://www.w3.org/1999/xhtml" style="backdrop-filter:blur(77.8px);clip-path:url(#bgblur_11_4540_154_clip_path);height:100%;width:100%"></div></foreignObject><rect data-figma-bg-blur-radius="155.6" x="691" width="63" height="624" fill="black" fill-opacity="0.05"/>
<foreignObject x="598.4" y="-155.6" width="374.2" height="935.2"><div xmlns="http://www.w3.org/1999/xhtml" style="backdrop-filter:blur(77.8px);clip-path:url(#bgblur_12_4540_154_clip_path);height:100%;width:100%"></div></foreignObject><rect data-figma-bg-blur-radius="155.6" x="754" width="63" height="624" fill="black" fill-opacity="0.05"/>
<foreignObject x="661.4" y="-155.6" width="374.2" height="935.2"><div xmlns="http://www.w3.org/1999/xhtml" style="backdrop-filter:blur(77.8px);clip-path:url(#bgblur_13_4540_154_clip_path);height:100%;width:100%"></div></foreignObject><rect data-figma-bg-blur-radius="155.6" x="817" width="63" height="624" fill="black" fill-opacity="0.05"/>
<foreignObject x="724.4" y="-155.6" width="374.2" height="935.2"><div xmlns="http://www.w3.org/1999/xhtml" style="backdrop-filter:blur(77.8px);clip-path:url(#bgblur_14_4540_154_clip_path);height:100%;width:100%"></div></foreignObject><rect data-figma-bg-blur-radius="155.6" x="880" width="63" height="624" fill="black" fill-opacity="0.05"/>
<foreignObject x="787.4" y="-155.6" width="373.2" height="935.2"><div xmlns="http://www.w3.org/1999/xhtml" style="backdrop-filter:blur(77.8px);clip-path:url(#bgblur_15_4540_154_clip_path);height:100%;width:100%"></div></foreignObject><rect data-figma-bg-blur-radius="155.6" x="943" width="62" height="624" fill="black" fill-opacity="0.05"/>
<foreignObject x="849.4" y="-155.6" width="374.2" height="935.2"><div xmlns="http://www.w3.org/1999/xhtml" style="backdrop-filter:blur(77.8px);clip-path:url(#bgblur_16_4540_154_clip_path);height:100%;width:100%"></div></foreignObject><rect data-figma-bg-blur-radius="155.6" x="1005" width="63" height="624" fill="black" fill-opacity="0.05"/>
<foreignObject x="912.4" y="-155.6" width="374.2" height="935.2"><div xmlns="http://www.w3.org/1999/xhtml" style="backdrop-filter:blur(77.8px);clip-path:url(#bgblur_17_4540_154_clip_path);height:100%;width:100%"></div></foreignObject><rect data-figma-bg-blur-radius="155.6" x="1068" width="63" height="624" fill="black" fill-opacity="0.05"/>
<foreignObject x="975.4" y="-155.6" width="374.2" height="935.2"><div xmlns="http://www.w3.org/1999/xhtml" style="backdrop-filter:blur(77.8px);clip-path:url(#bgblur_18_4540_154_clip_path);height:100%;width:100%"></div></foreignObject><rect data-figma-bg-blur-radius="155.6" x="1131" width="63" height="624" fill="black" fill-opacity="0.05"/>
<foreignObject x="1038.4" y="-155.6" width="374.2" height="935.2"><div xmlns="http://www.w3.org/1999/xhtml" style="backdrop-filter:blur(77.8px);clip-path:url(#bgblur_19_4540_154_clip_path);height:100%;width:100%"></div></foreignObject><rect data-figma-bg-blur-radius="155.6" x="1194" width="63" height="624" fill="black" fill-opacity="0.05"/>
<foreignObject x="1101.4" y="-155.6" width="374.2" height="935.2"><div xmlns="http://www.w3.org/1999/xhtml" style="backdrop-filter:blur(77.8px);clip-path:url(#bgblur_20_4540_154_clip_path);height:100%;width:100%"></div></foreignObject><rect data-figma-bg-blur-radius="155.6" x="1257" width="63" height="624" fill="black" fill-opacity="0.05"/>
<foreignObject x="1164.4" y="-155.6" width="357.2" height="935.2"><div xmlns="http://www.w3.org/1999/xhtml" style="backdrop-filter:blur(77.8px);clip-path:url(#bgblur_21_4540_154_clip_path);height:100%;width:100%"></div></foreignObject><rect data-figma-bg-blur-radius="155.6" x="1320" width="46" height="624" fill="black" fill-opacity="0.05"/>
<defs>
<clipPath id="bgblur_0_4540_154_clip_path" transform="translate(155.6 155.6)"><rect width="63" height="624"/>
</clipPath><clipPath id="bgblur_1_4540_154_clip_path" transform="translate(92.6 155.6)"><rect x="63" width="63" height="624"/>
</clipPath><clipPath id="bgblur_2_4540_154_clip_path" transform="translate(29.6 155.6)"><rect x="126" width="63" height="624"/>
</clipPath><clipPath id="bgblur_3_4540_154_clip_path" transform="translate(-33.4 155.6)"><rect x="189" width="62" height="624"/>
</clipPath><clipPath id="bgblur_4_4540_154_clip_path" transform="translate(-95.4 155.6)"><rect x="251" width="63" height="624"/>
</clipPath><clipPath id="bgblur_5_4540_154_clip_path" transform="translate(-158.4 155.6)"><rect x="314" width="63" height="624"/>
</clipPath><clipPath id="bgblur_6_4540_154_clip_path" transform="translate(-221.4 155.6)"><rect x="377" width="63" height="624"/>
</clipPath><clipPath id="bgblur_7_4540_154_clip_path" transform="translate(-284.4 155.6)"><rect x="440" width="63" height="624"/>
</clipPath><clipPath id="bgblur_8_4540_154_clip_path" transform="translate(-347.4 155.6)"><rect x="503" width="63" height="624"/>
</clipPath><clipPath id="bgblur_9_4540_154_clip_path" transform="translate(-410.4 155.6)"><rect x="566" width="62" height="624"/>
</clipPath><clipPath id="bgblur_10_4540_154_clip_path" transform="translate(-472.4 155.6)"><rect x="628" width="63" height="624"/>
</clipPath><clipPath id="bgblur_11_4540_154_clip_path" transform="translate(-535.4 155.6)"><rect x="691" width="63" height="624"/>
</clipPath><clipPath id="bgblur_12_4540_154_clip_path" transform="translate(-598.4 155.6)"><rect x="754" width="63" height="624"/>
</clipPath><clipPath id="bgblur_13_4540_154_clip_path" transform="translate(-661.4 155.6)"><rect x="817" width="63" height="624"/>
</clipPath><clipPath id="bgblur_14_4540_154_clip_path" transform="translate(-724.4 155.6)"><rect x="880" width="63" height="624"/>
</clipPath><clipPath id="bgblur_15_4540_154_clip_path" transform="translate(-787.4 155.6)"><rect x="943" width="62" height="624"/>
</clipPath><clipPath id="bgblur_16_4540_154_clip_path" transform="translate(-849.4 155.6)"><rect x="1005" width="63" height="624"/>
</clipPath><clipPath id="bgblur_17_4540_154_clip_path" transform="translate(-912.4 155.6)"><rect x="1068" width="63" height="624"/>
</clipPath><clipPath id="bgblur_18_4540_154_clip_path" transform="translate(-975.4 155.6)"><rect x="1131" width="63" height="624"/>
</clipPath><clipPath id="bgblur_19_4540_154_clip_path" transform="translate(-1038.4 155.6)"><rect x="1194" width="63" height="624"/>
</clipPath><clipPath id="bgblur_20_4540_154_clip_path" transform="translate(-1101.4 155.6)"><rect x="1257" width="63" height="624"/>
</clipPath><clipPath id="bgblur_21_4540_154_clip_path" transform="translate(-1164.4 155.6)"><rect x="1320" width="46" height="624"/>
</clipPath><linearGradient id="paint0_linear_4540_154" x1="47" y1="357.166" x2="1338" y2="357.166" gradientUnits="userSpaceOnUse">
<stop stop-color="#2D74F8"/>
<stop offset="1" stop-color="#0059FF"/>
</linearGradient>
</defs>
</svg>
