<svg width="94" height="98" viewBox="0 0 94 98" fill="none" xmlns="http://www.w3.org/2000/svg">
<path d="M68.0935 0H27.3895C26.899 0 26.4625 0.305855 26.3022 0.761763L0.0640242 75.4261C-0.194182 76.1609 0.360777 76.9269 1.15129 76.9269H41.8553C42.3458 76.9269 42.7824 76.6211 42.9426 76.1652L69.1808 1.50079C69.439 0.766031 68.884 0 68.0935 0Z" fill="white"/>
<path d="M43.8045 75.23H84.7197C85.1938 75.23 85.6193 75.516 85.7915 75.9504L93.9203 96.4579C94.2144 97.1996 93.6581 98 92.8485 98H52.1713C51.7014 98 51.2787 97.7189 51.1037 97.29L42.7369 76.7825C42.4336 76.0393 42.9902 75.23 43.8045 75.23Z" fill="white"/>
</svg>
